<svg xmlns="http://www.w3.org/2000/svg" xmlns:xlink="http://www.w3.org/1999/xlink" width="500" zoomAndPan="magnify" viewBox="0 0 375 374.999991" height="500" preserveAspectRatio="xMidYMid meet" version="1.0"><defs><g/></defs><path fill="#3f5965" d="M 152.945312 278.796875 C 155.566406 278.015625 158.121094 277.121094 160.605469 276.121094 C 117.613281 284.628906 74.425781 259.152344 61.699219 216.300781 C 48.972656 173.449219 71.257812 128.527344 111.925781 112.191406 C 109.296875 112.710938 106.667969 113.351562 104.046875 114.128906 C 58.578125 127.632812 32.664062 175.441406 46.164062 220.914062 C 59.667969 266.382812 107.476562 292.296875 152.945312 278.796875 " fill-opacity="1" fill-rule="nonzero"/><path fill="#289db9" d="M 46.53125 256.996094 C 48.8125 258.785156 51.152344 260.441406 53.539062 261.976562 C 19.820312 230.035156 15.347656 177.078125 44.582031 139.796875 C 73.816406 102.515625 126.308594 94.222656 165.371094 119.351562 C 163.308594 117.398438 161.148438 115.519531 158.867188 113.734375 C 119.304688 82.714844 62.089844 89.636719 31.066406 129.199219 C 0.046875 168.757812 6.972656 225.976562 46.53125 256.996094 " fill-opacity="1" fill-rule="nonzero"/><path fill="#289db9" d="M 131.179688 252.839844 C 107.71875 246.53125 88.421875 232.464844 75.300781 214.148438 C 85.644531 236.992188 105.753906 255.195312 131.863281 262.210938 C 165.964844 271.378906 200.78125 258.902344 221.734375 233.191406 C 197.371094 253.265625 163.988281 261.65625 131.179688 252.839844 " fill-opacity="1" fill-rule="nonzero"/><g fill="#3f5965" fill-opacity="1"><g transform="translate(71.076223, 202.25943)"><g><path d="M 13.765625 -11.375 L 8.6875 -11.375 L 6.703125 0 L 0.453125 0 L 5.84375 -31.0625 L 16.125 -31.046875 C 19.570312 -31.046875 22.222656 -30.234375 24.078125 -28.609375 C 25.929688 -26.992188 26.753906 -24.742188 26.546875 -21.859375 C 26.242188 -17.585938 23.96875 -14.617188 19.71875 -12.953125 L 24.09375 -0.34375 L 24.09375 0 L 17.4375 0 Z M 9.578125 -16.5625 L 14.234375 -16.515625 C 15.878906 -16.546875 17.238281 -16.988281 18.3125 -17.84375 C 19.394531 -18.707031 20.039062 -19.878906 20.25 -21.359375 C 20.445312 -22.742188 20.222656 -23.828125 19.578125 -24.609375 C 18.941406 -25.390625 17.925781 -25.804688 16.53125 -25.859375 L 11.203125 -25.890625 Z M 9.578125 -16.5625 "/></g></g></g><g fill="#3f5965" fill-opacity="1"><g transform="translate(96.292653, 202.25943)"><g><path d="M 18.71875 -6.40625 L 7.875 -6.40625 L 4.671875 0 L -2.21875 0 L 14.375 -31.0625 L 20.171875 -31.0625 L 26.078125 0 L 19.703125 0 Z M 10.4375 -11.59375 L 17.921875 -11.59375 L 16.171875 -23.15625 Z M 10.4375 -11.59375 "/></g></g></g><g fill="#3f5965" fill-opacity="1"><g transform="translate(122.981458, 202.25943)"><g><path d="M 18.046875 -31.0625 L 24.3125 -31.0625 L 20.65625 -9.5625 C 20.394531 -7.59375 19.738281 -5.832031 18.6875 -4.28125 C 17.632812 -2.738281 16.28125 -1.550781 14.625 -0.71875 C 12.976562 0.101562 11.171875 0.492188 9.203125 0.453125 C 6.265625 0.390625 4 -0.476562 2.40625 -2.15625 C 0.8125 -3.832031 0.0625 -6.179688 0.15625 -9.203125 L 6.4375 -9.171875 C 6.226562 -6.242188 7.257812 -4.757812 9.53125 -4.71875 C 10.769531 -4.675781 11.820312 -5.085938 12.6875 -5.953125 C 13.5625 -6.816406 14.125 -8.019531 14.375 -9.5625 Z M 18.046875 -31.0625 "/></g></g></g><g fill="#3f5965" fill-opacity="1"><g transform="translate(144.826361, 202.25943)"><g><path d="M 18.71875 -6.40625 L 7.875 -6.40625 L 4.671875 0 L -2.21875 0 L 14.375 -31.0625 L 20.171875 -31.0625 L 26.078125 0 L 19.703125 0 Z M 10.4375 -11.59375 L 17.921875 -11.59375 L 16.171875 -23.15625 Z M 10.4375 -11.59375 "/></g></g></g><g fill="#289db9" fill-opacity="1"><g transform="translate(173.582014, 202.517423)"><g><path d="M 25.84375 -9.15625 L 33.4375 -31.5 L 39.90625 -31.5 L 28.203125 0 L 21.828125 0 L 20.15625 -20.984375 L 11.921875 0 L 5.53125 0 L 3.671875 -31.5 L 9.859375 -31.5 L 10.484375 -9.25 L 18.96875 -31.5 L 24.359375 -31.5 Z M 25.84375 -9.15625 "/></g></g></g><g fill="#289db9" fill-opacity="1"><g transform="translate(209.274055, 202.517423)"><g><path d="M 18.96875 -6.484375 L 7.984375 -6.484375 L 4.734375 0 L -2.25 0 L 14.578125 -31.5 L 20.4375 -31.5 L 26.4375 0 L 19.96875 0 Z M 10.578125 -11.75 L 18.171875 -11.75 L 16.390625 -23.46875 Z M 10.578125 -11.75 "/></g></g></g><g fill="#289db9" fill-opacity="1"><g transform="translate(236.317258, 202.517423)"><g><path d="M 7.703125 -5.21875 L 21.0625 -5.21875 L 20.15625 0 L 0.453125 0 L 5.921875 -31.5 L 12.265625 -31.5 Z M 7.703125 -5.21875 "/></g></g></g><g fill="#289db9" fill-opacity="1"><g transform="translate(257.717088, 202.517423)"><g><path d="M 7.203125 0 L 0.859375 0 L 6.3125 -31.5 L 12.65625 -31.5 Z M 7.203125 0 "/></g></g></g><g fill="#289db9" fill-opacity="1"><g transform="translate(268.370746, 202.517423)"><g><path d="M 4.328125 -6.453125 C 5.296875 -6.472656 6.117188 -6.171875 6.796875 -5.546875 C 7.484375 -4.921875 7.828125 -4.128906 7.828125 -3.171875 C 7.859375 -2.222656 7.539062 -1.410156 6.875 -0.734375 C 6.21875 -0.0664062 5.40625 0.265625 4.4375 0.265625 C 3.46875 0.285156 2.648438 -0.00390625 1.984375 -0.609375 C 1.328125 -1.210938 0.984375 -1.992188 0.953125 -2.953125 C 0.921875 -3.921875 1.226562 -4.738281 1.875 -5.40625 C 2.53125 -6.070312 3.347656 -6.421875 4.328125 -6.453125 Z M 4.328125 -6.453125 "/></g></g></g><g fill="#289db9" fill-opacity="1"><g transform="translate(278.98116, 202.517423)"><g><path d="M 25.34375 0 L 19.203125 0 L 10.453125 -21 L 6.796875 0 L 0.453125 0 L 5.921875 -31.5 L 12.046875 -31.5 L 20.828125 -10.453125 L 24.484375 -31.5 L 30.796875 -31.5 Z M 25.34375 0 "/></g></g></g><g fill="#289db9" fill-opacity="1"><g transform="translate(307.451424, 202.517423)"><g><path d="M 21.234375 -13.640625 L 9.171875 -13.640625 L 7.703125 -5.21875 L 21.890625 -5.21875 L 20.984375 0 L 0.453125 0 L 5.921875 -31.5 L 26.40625 -31.5 L 25.484375 -26.234375 L 11.359375 -26.234375 L 10.03125 -18.734375 L 22.15625 -18.734375 Z M 21.234375 -13.640625 "/></g></g></g><g fill="#289db9" fill-opacity="1"><g transform="translate(329.737769, 202.517423)"><g><path d="M 28.03125 -26.234375 L 18.6875 -26.234375 L 14.140625 0 L 7.8125 0 L 12.34375 -26.234375 L 3.109375 -26.234375 L 4.046875 -31.5 L 28.96875 -31.5 Z M 28.03125 -26.234375 "/></g></g></g></svg>